<svg version="1.1" xmlns="http://www.w3.org/2000/svg" viewBox="0 0 274 358" width="548" height="716">
  <!-- svg-source:excalidraw -->
  
  <defs>
    <style>
      @font-face {
        font-family: "Virgil";
        src: url("https://excalidraw.com/Virgil.woff2");
      }
      @font-face {
        font-family: "Cascadia";
        src: url("https://excalidraw.com/Cascadia.woff2");
      }
    </style>
  </defs>
  <rect x="0" y="0" width="274" height="358" fill="#ffffff"></rect><g stroke-linecap="round" transform="translate(10 10) rotate(0 127 169)"><path d="M0 0 C0 0, 0 0, 0 0 M0 0 C0 0, 0 0, 0 0 M-0.45 6.66 C0.36 4.22, 2.96 3.01, 4.92 0.44 M-0.35 6.5 C0.65 5.4, 2.12 3.82, 5.25 0.12 M-0.54 12.37 C2.93 7.17, 8.29 2.48, 11.44 -0.78 M-0.36 11.57 C3.64 7.57, 8.06 3.15, 11.12 0.14 M-0.49 17.62 C3.93 14.29, 8.88 5.96, 15.87 1.59 M0.82 19.05 C3.8 14.79, 7.48 9.66, 15.54 -0.01 M1.58 24.02 C8.12 17.45, 12.94 11.13, 19.3 1.87 M0.92 23.15 C7.38 15.98, 13.59 8.25, 21.75 -0.23 M0.12 29.63 C8.57 22.38, 14.31 14.49, 25.96 1.67 M0.84 30.56 C10.69 18.25, 21.09 6.95, 25.46 -0.14 M0.03 35.83 C9.29 27.98, 19.02 14.6, 30.19 -0.84 M-1.23 36.34 C9.32 26.57, 19.44 14.76, 31.97 -0.25 M1.43 43.85 C10.47 28.18, 20.63 17.55, 36.19 -0.96 M0.28 43.4 C11.86 27.73, 24.07 14.11, 36.12 0.47 M-1.58 49.24 C10.88 35.56, 19.14 22.97, 42.06 0.76 M-0.62 49.26 C13.15 33.56, 28.25 17.44, 41.65 0.01 M-1.45 54.76 C13.27 41.47, 24.03 25.99, 47.42 0.69 M1.22 54.12 C10.95 40.98, 23.29 26.96, 47.06 -0.25 M-1.66 60.61 C11.4 49.92, 21.64 36.83, 53.41 0.27 M-0.04 61.31 C12.82 47.41, 25.16 32.14, 52.91 -0.18 M-1.28 69.33 C11.99 51.03, 27.98 36.3, 58.32 0.3 M-0.58 67.44 C21.44 41.66, 42.45 16.7, 57.7 -0.44 M-0.16 72.26 C13.9 59.91, 25.43 41.39, 65.56 0.99 M0.24 73.03 C24.77 44.11, 50.72 15.63, 63.21 -1.15 M-2.07 77.97 C21.61 51.51, 45.89 28.5, 67.32 0.28 M-0.02 80.21 C17.55 60.66, 34.22 38.94, 68.33 0.62 M-1.28 83.22 C16.59 64.13, 37.26 43.31, 72.57 -2.07 M0.82 85.83 C22.35 59.19, 46.91 32.59, 74.39 0.16 M-1.02 93.1 C24.12 63.73, 48.44 33.62, 78.65 1.77 M0.39 90.92 C22.9 63.41, 48.05 35.12, 79.06 -0.43 M-0.07 96.01 C32.02 60.44, 64.27 25.98, 83.32 -0.17 M-0.52 97.79 C33.94 60.38, 66.81 19.52, 85.64 -0.82 M0.1 104.06 C29.58 70.98, 58.42 33.32, 88.32 -1.39 M0.15 103.71 C25.91 72.76, 50.26 44.42, 90.91 -0.07 M-1.85 111.58 C31.36 74.09, 62.58 37.51, 95.44 -0.84 M0.85 109.6 C26.71 80.44, 52.15 51.17, 96.5 -1.24 M0.31 115.96 C23.65 88.91, 48.44 59.17, 102.09 -0.63 M1.12 116.11 C38.18 72.05, 76.22 29.61, 100.72 -0.91 M-0.1 123.89 C33.87 80.59, 72.46 42.69, 105.36 -1.91 M-0.57 122.11 C21.99 95.59, 44.45 71.53, 105.89 0.13 M0.76 128.33 C32.42 91.98, 63.08 56.5, 109.55 1.35 M-0.13 128.78 C33.88 92.5, 65.27 54.43, 112.21 -0.64 M0.1 134.86 C36.55 93.28, 72.14 51.27, 117.63 -0.73 M-0.75 134.3 C35.49 93.18, 69.37 53.93, 116.42 0.66 M1.33 142.2 C47.09 90.88, 90.11 37.1, 122.03 0.53 M-0.72 139.52 C22.82 112.42, 47.96 83.95, 120.95 0.93 M-0.52 145.1 C28.47 110.66, 61.59 76.18, 125.54 0.81 M0.2 145.06 C39.05 98.83, 79.6 54.36, 126.02 -0.16 M-1.13 150.74 C51.95 92.6, 104.59 31.7, 130.86 1.48 M-0.31 152.74 C29.73 119.91, 57.83 87.09, 133.28 0.78 M-1.9 160.49 C31.76 122.56, 65.63 83.32, 137.25 -1.03 M0.29 158.89 C26.5 127.32, 56.21 93.2, 137.1 0.78 M-0.75 165.24 C52.49 105.03, 105.66 43.66, 144.21 0.13 M0.26 163.75 C36.82 121.99, 73.52 80.56, 143.69 0.14 M-0.95 172.07 C33.53 130.86, 69.85 89.51, 148.19 1.98 M-0.31 170.09 C33.93 130.89, 68.42 92.09, 147.86 0.42 M-0.46 176.31 C40.13 134.25, 75.85 90.06, 155.49 0.16 M-0.11 175.74 C33.34 138.57, 68.98 98.25, 153.37 0.55 M-0.02 181.59 C51.62 122.79, 104.71 60.74, 158.82 0.05 M0.75 183.46 C34.9 143.43, 70.31 101.88, 158.99 0.72 M0.47 189.44 C50.28 131.07, 100.27 73.29, 163.65 0.53 M0.46 190.09 C38.21 145.32, 75.83 101.97, 164.85 0.08 M0.76 195.27 C39.24 151.08, 80.34 106.77, 168.44 -1.15 M-0.46 194.3 C54.14 133.35, 106.14 73.14, 168.91 0.49 M0.46 202.3 C66.26 125.47, 132.43 50.15, 173.93 0.89 M0.29 201.38 C58.99 132.39, 118.78 65.96, 174.7 -0.68 M1.11 206.68 C71.3 127.21, 141.78 45.28, 180.18 0.03 M-0.45 207.01 C37.48 162.7, 76.27 118.59, 179.62 -0.26 M-0.02 214.7 C40.67 167.66, 80.46 123.33, 186.14 -0.04 M-0.59 212.61 C42.43 164.75, 86.56 114.47, 185.93 0.23 M-1.53 219.01 C56.23 153.94, 115.36 87.75, 189.83 0.3 M0.02 220.08 C61.82 148.5, 124.06 77.77, 190.87 0.29 M-0.9 224.14 C65.11 152.88, 127.18 77.36, 197 0.1 M-0.56 226.04 C71.49 144.95, 143.18 61.67, 195.88 -0.71 M1.05 230.48 C78.13 139.87, 155.83 51.81, 200.12 -0.51 M-0.09 232.1 C48.89 175.39, 97.98 118.19, 201.27 0.38 M1.29 236.81 C68.6 161.2, 134 86.22, 207.8 -0.39 M0.61 237.48 C43.38 187.76, 85.32 139.11, 206.43 -0.98 M1.42 243.52 C65.84 167.57, 133.57 91.96, 212.52 -1.32 M0.62 243.87 C53.82 180.3, 107.92 118.02, 211.95 0.14 M-0.14 249.02 C85.68 150.26, 171.88 53.94, 216.74 0.25 M-0.72 249.83 C77.11 158.08, 157.35 65.8, 217.05 -0.5 M-1.03 254.69 C59.64 188.32, 120.02 120.26, 223.48 1.26 M0.46 256.02 C53.73 195.21, 106.35 134.55, 222.79 0.63 M-0.69 263.13 C50.8 206.43, 98.82 152.2, 228.72 0.06 M-0.29 261.69 C68.21 181.73, 137.22 102.16, 228.47 -0.59 M-0.47 267.92 C66.81 189.3, 134.4 113.84, 234.29 0.93 M0.48 267.71 C80.31 176.68, 159.85 85.16, 233.27 0.43 M0.96 274.2 C57.74 206.74, 116.92 140.21, 237.05 1.07 M-0.43 274.18 C51.64 215.3, 101.8 156.79, 238.73 0.16 M-0.19 280.36 C86.64 184.65, 170.45 88.49, 244.11 -0.41 M0.21 280.78 C78.43 192.39, 155.66 103.38, 244.4 0.43 M-0.3 286.89 C61.71 217.17, 122.75 146.24, 248.65 -0.3 M0.06 286.01 C81.02 192.22, 160.95 99.34, 249.11 0.78 M-0.04 293.79 C61.34 222.85, 125.28 150.67, 253.86 -0.15 M-0.14 292.23 C54.77 231.43, 107.85 169.9, 254.3 0.41 M-0.24 299.21 C89.5 196.66, 178.74 96.55, 255.3 6.03 M0.69 298.65 C53.04 236.61, 105.98 176.12, 254.2 6.7 M0.49 305.37 C79.74 210.32, 163.32 116.82, 253.6 12.06 M0.62 304.26 C64.25 233.63, 126.21 161.14, 253.83 12.7 M0.12 312.31 C95.76 202.22, 190.18 95.16, 253.7 17.65 M-0.6 311.51 C69.85 229.2, 140.25 147.5, 254.35 18.94 M1.2 317.88 C93.18 209.7, 183.37 105.79, 253.31 23.62 M0.64 317.08 C86.23 218.47, 172.62 118.82, 253.98 24.57 M1.09 323.66 C82.46 229.88, 163.99 133.23, 255.02 31.35 M0.45 323.2 C70.05 242.2, 141.35 160.55, 254.48 30.58 M-0.59 329.79 C70.53 251.07, 138.73 171.72, 253.33 36.1 M-0.2 329.07 C50.01 271.8, 101.91 213.06, 254.7 37.27 M-0.87 335.21 C78.29 248, 152 162.23, 253.81 42.91 M0.43 335.39 C52.84 277.06, 103.55 217.17, 253.54 42.66 M1.86 339.67 C101.97 223.95, 204.3 106.6, 253.97 49.01 M1.54 339.38 C59.93 274.75, 116.74 210.26, 253.85 49.19 M6.59 339.24 C100.97 233.66, 191.04 126.03, 253.51 55.64 M6.3 339.3 C97.72 231.35, 191.67 124.29, 254.13 55.62 M12.29 338.93 C68.57 275.33, 125.24 208.88, 253.56 61.67 M12.89 338.93 C106.61 228.37, 202.05 119.26, 254.22 60.72 M17.73 340.93 C92.69 253.76, 168.59 170, 254.33 67.3 M17.25 339.98 C104.17 240.89, 191.17 142.03, 254.44 67.38 M23.19 340.42 C90.94 263.51, 156.81 185.11, 253.96 72.61 M22.38 339.51 C111.39 238.93, 199.28 137.75, 254.06 73.18 M26.9 340.6 C91.19 267.53, 151.9 196.04, 254.57 80.16 M28.44 339.32 C88.86 268, 150.42 197.26, 253.73 79.18 M33.65 339.22 C83.52 279.57, 135.76 222.41, 254.55 85.56 M33.27 339.07 C88.45 275.16, 144.28 210.82, 253.67 85.41 M38.11 338.6 C100.32 268.83, 161.69 198.21, 253.47 90.53 M39.06 339.26 C90.9 278.15, 143.94 217.29, 255.12 91.04 M43.87 339.9 C118.42 254.49, 190.23 170.48, 254.33 97.44 M43.7 339.39 C117.84 253.38, 192.32 167.75, 253.55 97.4 M49.46 339.46 C126.37 252.73, 203.07 162.27, 255.01 103.91 M49.13 339.55 C125.98 252.35, 201.8 164.97, 253.69 104.35 M53.91 339.58 C106.07 278.59, 157.34 218.85, 253.48 109.34 M55.01 338.79 C101.62 283.48, 148.84 229.7, 253.86 109.26 M59.31 339.31 C109.21 280.05, 160.87 224.84, 255.36 117.45 M60.42 339.42 C131.52 255.27, 203 173.3, 254.52 116.77 M65.19 339.98 C109.97 287.41, 157.28 233.04, 254.34 120.84 M65.64 339.78 C126.29 269.41, 187.23 198.69, 254.29 121.44 M70.99 338.09 C109.62 293.56, 150.7 247.83, 253.89 127.82 M69.89 339.79 C125.16 275.84, 178.97 211.82, 254.34 128.8 M76.03 340.54 C130.51 279.18, 181.74 217.75, 253.28 135.1 M76.03 339.7 C116.22 291.78, 157.53 245.07, 254.13 134.73 M82.56 338.67 C120.55 293.16, 161.58 245.11, 255.25 138.84 M80.68 339.67 C128.19 287.15, 174.14 233.37, 254.79 140.05 M85.98 339.54 C126.96 293.48, 168.77 244.99, 253.69 145.07 M86.55 338.62 C132.72 287.14, 176.13 236.8, 254.09 146.33 M90.83 339.19 C138.08 285.8, 183.71 231.29, 254.72 152.19 M92.57 339.9 C141.31 280.1, 190.88 223.1, 255.15 152.44 M96.99 339.75 C137.64 289.45, 181.62 238.77, 254.59 158.31 M96.04 339.83 C150.89 280.51, 203.79 219.05, 254.79 158.41 M102.99 340.66 C134.22 303.43, 166.45 265.28, 254.53 166.09 M102.22 339.2 C149.22 287.05, 194.16 234.21, 253.85 165.46 M108 340.86 C166.65 272.66, 223.15 210.06, 254.56 170.23 M106.83 339.41 C140.07 303.57, 170.55 265.79, 253.71 171.14 M112.16 338.73 C150.55 297.8, 185.76 252.61, 255.63 176.72 M112.28 339.99 C149.74 296.27, 188.13 252.72, 253.64 176.9 M118.99 338.48 C162.37 289.44, 207.29 239.08, 256.26 182.49 M118.42 339.75 C156.22 294.66, 194.94 250.74, 253.63 182.41 M121.88 339.03 C170.95 286.59, 217.71 231.87, 254.96 188.22 M124.34 338.96 C159.35 300.36, 194.6 261.1, 253.52 188.38 M128.69 340.33 C161.17 301.45, 197.17 260.47, 253.52 195.65 M129.03 338.84 C154.67 310.36, 181.31 279.79, 254.67 196.54 M135.88 338.45 C157.81 309.77, 183.35 280.22, 252.99 201.81 M133.69 338.47 C169.59 299.79, 202.56 259.74, 254.17 202.09 M139.21 340.57 C181.59 293.77, 218.05 251.27, 253.67 207.69 M139.22 339.32 C167.21 308.09, 194.94 274.67, 253.44 207.57 M146.05 340.97 C169.37 314.12, 192.65 285.15, 252.71 213 M145.59 338.62 C185.72 291.43, 226.08 244, 253.86 213.9 M150.83 339.22 C181.34 306.31, 210.11 270.35, 253.69 220.5 M149.71 339.79 C185.04 298.92, 219.31 261.33, 253.57 219.91 M155.18 340.38 C187.29 300.21, 220.48 263.79, 252.03 226.82 M154.75 339.83 C184.67 306.93, 211.78 275.11, 253.16 225.37 M159.48 341.19 C195.85 297.14, 235.12 253.51, 255.8 230.98 M160.02 339.74 C195.58 298.69, 232.26 256.01, 253.83 232.7 M166.87 338.21 C188.84 312.7, 213.94 284.69, 252.61 236.78 M166.27 339.91 C190.36 313.89, 212.74 287.44, 254.46 237.66 M170.89 338.1 C203.02 304.65, 233.28 265.86, 252.97 245.74 M171.55 340.54 C192.78 315.6, 212.3 290.14, 254.34 243.44 M175.47 337.71 C198.37 314.53, 217.11 291.95, 253.91 251.34 M176.58 339.04 C193.28 319.98, 211.16 299.42, 255.02 251.12 M182.56 338.32 C205.88 310.69, 228.71 283.7, 254.33 255.88 M182.54 340.46 C204.89 312.91, 228.96 285.92, 254.95 255.79 M188.12 337.82 C204.22 318.96, 221.46 301.28, 253.86 260.96 M186.47 338.83 C211.56 308.8, 237.63 279.9, 254.64 261.21 M193.77 340.91 C210.44 318.47, 231.96 293.27, 253.73 267.93 M193.08 339.65 C212.08 317.08, 231.36 296.26, 254.8 269.52 M198.75 339.23 C217.37 315.45, 237.15 294.64, 254.14 272.79 M198.11 339.23 C213.92 321.81, 228.49 305.22, 253.98 274.3 M203.59 337.65 C221.04 318.91, 242.83 294.77, 255.85 282.42 M202.16 339.16 C217.22 322.69, 231.94 304.7, 253.45 280.08 M210.07 338.33 C228.93 317.62, 245.49 298.12, 253.56 285.47 M208.02 339.63 C219.73 327.62, 231.3 313.59, 254.88 287.4 M212.86 339.05 C226.98 324.29, 241.33 303.67, 252.8 292.84 M214.58 339.94 C223.49 327.74, 233.97 316.91, 254.46 292.53 M218.9 338 C231.53 323.2, 243.83 309.06, 252.7 300.09 M219.42 340.54 C227.27 330.03, 233.82 321.8, 254.03 298.12 M226.22 340.33 C232.09 328.79, 242.69 319.2, 253.46 304.4 M224.03 339.8 C234.99 327.36, 244.78 315.53, 253.76 305.34 M228.83 338.55 C240.29 331.36, 247.66 318.48, 255.91 310.73 M229.86 339.6 C237.15 330.35, 245.51 319.48, 254 310.27 M234.07 339.44 C238.3 334.64, 243.65 329.19, 252.87 316.78 M234.05 338.48 C238.36 333.81, 243.61 329.55, 253.97 318.11 M240.24 340.29 C242.57 335.71, 246.14 331.26, 256.03 323.41 M240.27 339.1 C244.62 334.17, 248.7 330.12, 254.88 323.77 M246.25 339.15 C247.58 337.63, 251.35 332.91, 253.26 330.57 M245.24 338.86 C248.09 336.16, 251.75 332.83, 254.07 329.57 M250.7 339.36 C252.57 338.07, 253.79 336.73, 254.86 335.11 M250.59 339.8 C251.72 338.64, 252.37 337.51, 254.55 334.97 M0.19 338.17 C0.19 338.17, 0.19 338.17, 0.19 338.17 M0.19 338.17 C0.19 338.17, 0.19 338.17, 0.19 338.17 M6 337.15 C5.1 336.73, 2.89 335.57, -0.81 332.29 M5.43 337.71 C3.38 335.67, 1.62 333.46, -0.46 332.4 M11.04 336.94 C8.17 333.28, 3.57 330.99, -0.23 327.1 M11.43 338.54 C8.99 335.51, 7.43 332.81, 0.02 326.86 M20.41 338.6 C11.16 333.13, 5.65 325.24, 1.65 321.5 M19.52 339.15 C14.21 334.48, 9.27 330.47, 0.72 322.51 M23.68 338.79 C18.69 334.38, 15.73 329.44, -0.47 317.85 M24.56 338.51 C15.89 331.47, 9.31 324.32, -0.01 316.22 M31.3 336.91 C20.86 328.49, 12.43 323.15, -1.02 312.45 M31.4 338.53 C21.39 328.91, 10.78 319.98, 0.15 310.75 M35.87 339.23 C23.97 327.7, 14.81 318.29, 0.86 307.2 M37.06 337.12 C25.71 326.67, 14.43 316.79, -0.62 306.07 M44.65 337.96 C27.18 324.58, 15.31 311.27, 0.01 300.41 M42.64 338.92 C33.41 328.54, 23.2 320.36, -1.18 300.32 M47.16 338.91 C31.38 322.27, 14.11 308.31, 2.05 294.27 M49.18 339.21 C33.82 324.63, 20.3 311.48, 0.59 296.46 M56.19 337.6 C41.69 329.97, 32.67 320.19, -1.77 289.73 M53.98 337.2 C42.61 326.31, 31.07 316.94, -1.03 289.47 M62.93 337.48 C42.68 321.99, 24.91 305.82, -1.77 286.02 M61.98 338.44 C39.49 319.11, 15.56 298.8, 0.42 284.96 M66.44 339.43 C50.09 322.68, 33.09 308.09, 0.94 279.49 M66.54 337.64 C43.65 316.6, 19.85 296.12, -1.28 280.36 M72.58 339.29 C58.38 326.66, 43.52 310.91, -0.68 275.12 M72.61 338.3 C54.31 322.42, 33.91 305.13, -0.96 273.56 M79.45 337.4 C61.38 322.81, 42.2 306.93, -0.05 270.11 M79.54 337.56 C63.15 322.91, 45.09 308.11, -0.22 268.7 M84.55 336.77 C51.23 308.68, 19.99 282.1, 0.04 261.99 M84.37 338.54 C55.31 311.02, 24.25 284.81, 0.94 263.61 M89.8 339.22 C54.95 308.1, 18.36 274.95, -1.41 258.8 M92.3 337.71 C68.94 318.3, 44.77 298.41, -0.54 258.12 M97.07 337.02 C66.83 314.17, 37.95 286.23, 1.87 252.72 M96.39 336.76 C68.84 312.83, 41.28 288.32, 0.03 252.89 M105.09 336.29 C66.48 306.04, 26.99 274.09, 2.26 249.44 M103.76 337.19 C78.24 316.23, 53.94 293.43, 0.21 249.09 M108.9 336.57 C85.3 314.31, 62 295.12, -0.93 241.15 M109.4 338.16 C76.57 309.28, 43.99 279.83, 0.52 242.54 M116.98 339.06 C84.02 310.65, 54.63 284.64, 1.35 235.97 M116.49 337.84 C92.27 317.23, 67.27 295.46, -0.44 237.35 M122.31 336.67 C96.83 317.34, 74.99 294.57, 0.69 230.84 M121.77 337.82 C83.35 303.15, 46.15 269.92, 0.03 232.1 M127.89 339.71 C78.09 295.94, 28.03 250.42, 2.06 225.04 M128.38 337.88 C90.07 304.88, 51.22 271.28, -0.09 227.5 M133.61 337.26 C100.85 308.2, 68.53 280.02, 0.58 221.06 M134.96 337.69 C102.01 309.3, 70.57 282.71, 0.5 220.51 M141.77 338.8 C95.67 300.33, 50.35 258.48, 0.36 218.05 M140.46 337.59 C97.4 301.1, 54.13 264.53, -0.47 216.03 M148.15 336.34 C89.71 290.54, 32.82 242.01, -0.67 208.79 M145.53 336.97 C105.99 302.31, 67.31 268.64, -0.75 211.07 M151.26 336.78 C114.57 304.62, 74.62 271.95, 0.02 205.14 M152.82 337.72 C96.07 290.93, 41.82 242.01, -0.41 206.28 M158.97 336.78 C123.05 307.72, 87.85 277.85, -1.5 198.89 M158.85 337.74 C127.19 309.11, 94.77 281.99, -0.07 200.45 M163.58 339.02 C129.14 306.86, 93.88 276.5, -1.27 194.98 M164.33 338.15 C122.37 302.1, 80.12 265.93, 0.8 195.65 M170.17 339.98 C111.71 283.46, 51.12 230.41, -1.93 189.35 M171.17 338.57 C116.74 288.13, 61.41 240.51, -0.35 189.85 M176.33 337.56 C125.97 295.92, 77.93 253.72, 1.05 185.11 M176.2 337.03 C126.99 294.02, 78.23 250.94, -0.44 184.37 M182.34 339.73 C120.94 286.05, 59.19 231.52, -1.19 178.75 M183 337.33 C130.81 289.3, 76.34 242.41, -0.29 177.98 M188.11 338.26 C121.17 282.01, 55.29 223.97, -0.62 172.44 M188.17 337.12 C114.25 273.38, 40.08 208.31, 0.77 174.19 M196.46 337.64 C125.42 276.08, 54.34 216.49, 0.41 167.07 M195.05 338.62 C141.28 288.99, 86.52 242.33, -0.93 168.88 M200.63 338.8 C129.57 272.44, 54.84 207.22, -0.48 164.35 M201.82 338.61 C143.96 287.37, 86.92 238.29, -0.1 162.62 M206.33 338.24 C138.99 276.64, 66.71 214.57, 0.83 157.86 M206.44 337.26 C162.66 300.09, 116.82 261.08, 0.96 158.51 M213.84 338.12 C144.26 278.74, 75.87 216.94, -1.24 150.98 M213.59 337.8 C152.77 284.84, 91.93 231.39, 0.5 151.94 M219.89 338.51 C167.17 291.79, 115.27 245.3, 1.22 147.61 M219.29 337.67 C142.78 271.23, 65.96 204.73, 1.06 147.72 M225.89 338.33 C179.52 297.02, 133.94 256.75, 0.44 142 M224.91 337.98 C165.72 285.65, 107.37 232.52, 0.44 141.88 M233.05 336.99 C151.08 268.76, 72.6 197.37, -0.56 137.74 M232.44 337.73 C163.14 276.69, 92.31 214.64, 0.83 137.19 M237.94 337.69 C168.78 279.9, 99.13 217.27, 0.22 130.68 M238.07 338.16 C161.72 271.07, 83.68 203.66, 0.58 130.7 M244.12 338.03 C145.89 254.56, 51.3 170.24, 0.48 127.33 M244.06 337.85 C148.22 256.74, 54.54 174.21, 0.42 125.83 M250.14 338.57 C189.75 285.3, 128.12 231.66, -0.33 119.88 M249.12 337.73 C171.36 270.87, 93.42 202.72, -0.46 120.23 M254.78 335.59 C192.63 282.73, 127.47 226.02, 1.14 115.41 M255.02 336.76 C177.36 268.71, 98.65 201.37, 0.24 114.94 M253.71 331.68 C151.43 241.48, 50.1 152.85, -1.35 111.27 M254.68 331.2 C171.9 259.66, 91.69 190.37, -0.03 109.33 M253.98 326.7 C199.87 278.93, 146 230.67, 0.43 104.84 M255 326 C189.26 267.77, 122.64 211.96, 0.19 104.61 M255.38 321.6 C179.13 254.23, 103 187.22, -0.48 99 M255.01 320.48 C162.66 240.25, 69.79 160.42, -0.37 98.88 M256.35 315.78 C172.64 241.94, 89.38 169, 0.49 95.49 M254.67 316.73 C198.99 266.29, 143.64 218.27, 0.46 94.62 M255.46 310.57 C163.52 230.21, 71.47 148.81, 0.52 89.78 M254.47 310.37 C176.32 244.49, 98.06 175.55, 0.24 88.36 M254.18 305.96 C188.7 248.94, 123.23 192.35, -0.01 83.1 M255.79 304.9 C190.26 250.05, 125.66 193.92, 0.78 83.6 M253.53 300.11 C154.88 215.35, 57.07 131.56, -0.29 77.4 M254.34 299.99 C163.74 220.51, 73.81 141.99, 0.09 77.8 M255.25 294.77 C199.94 247.07, 144.05 198.12, 0.77 73.92 M254.94 294.34 C197.31 242.06, 138.21 190.36, -0.18 72.52 M255.03 288.83 C185.49 230.29, 118.02 172.31, -0.95 68.18 M254.84 289.39 C164.63 211.15, 75.59 133.67, 0.03 67.19 M254.39 283.62 C190.48 228.18, 127.32 170.96, 1.19 61.96 M254.52 284.16 C179.37 218.1, 102.54 152.92, -0.18 62.56 M253.89 279.21 C185.45 218.88, 116.65 156.94, 0.34 55.54 M254.39 278.91 C183.17 217.67, 112.66 157.14, 0.17 57.1 M254.33 274.36 C166.89 197.8, 78.55 118.68, 0.14 51.74 M254.84 274.05 C157.7 188.94, 58.81 102.99, 0.58 51.84 M255.28 268.15 C160.24 186.67, 65.01 103.58, -0.72 46.08 M254.34 268.45 C165.54 191.63, 77.21 114.79, -0.07 47.37 M256.3 262.64 C174.19 191.77, 93.65 121.86, 1.03 40.92 M254.79 262.3 C169.54 188.29, 85.05 114.53, 0.13 41.41 M255.49 256.41 C171.56 188.36, 92.45 116.14, -0.09 36.88 M254.27 256.84 C172.74 186.22, 90.7 115.82, -0.27 36.42 M256.03 252.63 C175.43 183.1, 97.47 113.68, -0.22 29.64 M255.14 251.82 C166.8 176.31, 79.07 100, -0.57 30.57 M254.03 247.23 C169.81 172.59, 82.68 99.69, -1.04 26.12 M254.02 246.54 C202.31 202.69, 151.2 158.1, 0.8 25.95 M255.81 242.29 C171.53 171, 88.61 98.61, -0.48 19.19 M255.27 241.4 C169.98 170.21, 86.95 96.18, 0.33 20.24 M254.97 236.95 C193.06 183.04, 130.29 127.55, 0.36 14.51 M254.31 236.22 C171.24 165.15, 90.15 93.6, 0.2 14.9 M255.09 230.04 C184.05 169.04, 112.62 107.69, -1.46 7.99 M255.1 230.45 C157.7 145.8, 60.95 61.56, -0.4 9.56 M254.83 224.41 C164.77 148.74, 74.87 70.44, 1.13 4.56 M254.79 225.51 C190.86 167.11, 124.49 110.23, 0.23 4.82 M254.52 221.51 C170.06 146.82, 84.69 71.19, 0.43 -1.05 M254.48 220.98 C183.62 159.17, 110.95 95.66, 1 -0.04 M254.7 214.98 C166.24 137.57, 79.88 60.33, 7.67 -0.19 M254.65 214.28 C175.36 146.02, 95.31 76.7, 6.53 -0.25 M254.61 209.37 C159.71 127.45, 63.78 43.68, 13.82 -2.08 M255.17 210.27 C204.34 167.33, 155.32 124.64, 13 -0.35 M254.19 203.67 C199.44 156.17, 147.76 111.47, 19.22 -1.66 M255.44 205.4 C190.63 148.27, 126.58 92.3, 19.1 -0.94 M254.35 198.89 C163.4 122.78, 75.67 45.29, 24.4 -1.64 M254.76 199.46 C207.64 155.55, 158.72 112.8, 24.38 -0.63 M255.46 192.91 C181.37 127.33, 107.73 65.6, 31.14 -1.72 M254.6 194.5 C209.56 154.49, 163.94 114.82, 30.56 -0.38 M255.45 187.66 C172.09 116.56, 87.92 42.82, 36.05 -1.51 M254.15 189.06 C180.22 121.43, 103.22 54.68, 37.75 0.02 M254.95 184.36 C188.43 126.47, 120.7 67.97, 42.49 -1.24 M254.99 182.85 C203.39 138.44, 151.45 94.94, 42.99 -0.07 M255.02 178.14 C197.2 125.32, 135.54 74.04, 49.93 -1.35 M254.24 177.98 C179.98 114.02, 105.49 48.89, 50.14 -0.71 M256.2 174.2 C212.08 136.83, 168.38 96.96, 55.19 -0.7 M255.36 173.05 C202.75 128.37, 152.02 84.15, 54.72 -1.02 M256.02 167.28 C191.4 110.33, 122.81 50.41, 60.76 -2.11 M255.16 167.35 C182.35 104.69, 109.75 41.54, 60.9 -0.55 M254.09 161.09 C188.22 105.66, 121.22 44.98, 67.11 -1 M254.57 162.65 C185.83 99.85, 116.21 39.5, 67.73 -0.53 M253.31 157.15 C213.95 123, 173.45 88.74, 74.01 -0.79 M255.25 156.65 C218.68 123.92, 181.97 91.66, 72.92 -0.68 M255.29 151.74 C212.24 113.81, 169.19 76.04, 80.02 -1.26 M255.87 150.89 C215.9 116.45, 176.42 83.33, 79.29 -0.2 M254.64 147.35 C196.67 97.59, 142.86 48.55, 86.22 -1.16 M255.1 146.07 C210.55 108.51, 167.13 71.62, 86.35 -1.23 M254.1 139.59 C208.75 101.82, 166.26 61.91, 92.95 0.56 M254.5 141.61 C205.38 98.27, 155.22 54.26, 92.09 -1.57 M256.17 136.22 C202.58 91.17, 149.8 44.33, 96.7 -1.74 M255.24 135.76 C219.23 104.27, 183.34 73.18, 97.97 0.4 M253.77 129.51 C222.85 104.07, 190.62 72.6, 103.78 -0.55 M255.34 130.49 C216.39 96.64, 180.34 65.34, 103.72 -0.9 M253.21 126.41 C223.48 97.57, 195.43 70.68, 110.34 0.6 M255.29 124.83 C226.76 99.05, 196.55 74.47, 111.36 -0.95 M254.97 119.32 C207.58 80.17, 159.84 36.49, 115.42 -0.21 M254.93 119.51 C210.07 83.31, 168.77 46.33, 116.95 -1.55 M253.98 115.35 C203.67 71.64, 153.04 27.1, 122.71 -2.47 M254.46 114.06 C208.45 71.16, 159.44 30.01, 122.64 -0.96 M253.4 108.29 C214.44 73.52, 176.57 39.08, 128.04 -0.02 M254.48 109.46 C218.33 75.28, 179.54 42.8, 128.57 0.14 M255.22 105.46 C208.42 64.2, 159.08 21.04, 136.41 -0.84 M255.04 103.3 C225.91 77.72, 194.93 51.35, 135.23 -0.08 M253.13 99.2 C227.13 74.76, 197.25 49.18, 141.07 -0.89 M255.8 98.46 C223.31 72.17, 193.43 46.34, 140.79 -0.15 M255.29 93.74 C228.69 70.12, 202.28 45.66, 145.06 -2.52 M255.09 92.24 C216.55 61.91, 181.18 29.8, 145.93 -0.51 M253.15 88.68 C229.46 62.04, 198.32 40.2, 152.02 -1.05 M254.02 87.02 C216.01 52.85, 175.12 19.38, 152.97 0.14 M257.05 82.57 C230.13 59.91, 200.47 38.43, 159.8 0.85 M254.31 82.1 C230.94 61.04, 205.56 38.88, 158.68 -0.36 M253.23 77.06 C234.74 60.02, 218.63 46.55, 163.43 -0.69 M254.63 77.04 C227.21 54.81, 202.68 31.76, 165.61 -1.22 M254.93 71.07 C236.56 55.7, 215.79 40.3, 172.3 1.39 M255.97 72.06 C225.73 46.82, 198.93 22.7, 170.49 -1.35 M255.91 66.38 C237.5 51.8, 217.96 35.95, 177.61 0.72 M254.47 66.82 C230.14 44.56, 203.38 22.1, 178.03 -1.55 M253.35 61.07 C237.92 46.19, 220.01 32.97, 185.27 0.89 M254.49 62.11 C233.55 42.34, 212.39 24.21, 183.03 0.17 M256.53 54.43 C237.45 41.26, 222.55 28.16, 191.4 -0.9 M254.74 56.02 C233.33 38.48, 212.87 19.76, 190.2 0.37 M253.79 52.45 C231.38 30.29, 209.84 11.7, 195.44 -1.76 M255.37 51.53 C234.71 33.18, 212.45 13.18, 194.53 -0.42 M253.2 44.69 C236.67 29.33, 223.71 14.9, 203.19 1.11 M254.02 44.73 C234.81 27.86, 212.35 9.82, 202.65 -1.32 M253.5 41.8 C246.76 32.64, 235.79 23.63, 208.34 -0.01 M254.98 40.44 C241.33 29.08, 227.54 16.77, 207.62 -0.33 M252.81 36.37 C240.51 22.44, 223.5 9.69, 215.37 -1.9 M255.22 34.4 C241.3 22.75, 228.47 12.93, 214.07 -0.62 M255.52 28.44 C243.4 20.87, 231.83 7.89, 221.02 -0.87 M255.55 28.89 C246.86 22.74, 239.99 17.26, 221.02 0.25 M253.03 22.4 C245.87 16.21, 232.43 6.46, 225.4 -2.52 M254.64 24.9 C248.01 19.26, 242.2 13.37, 225.22 -1.29 M254.65 20.42 C246.2 13.86, 239.42 6.49, 233.05 -1.65 M254.17 19.79 C246.97 11.48, 238.26 4.57, 231.54 -1.44 M256.33 15.41 C248.66 10.52, 242.64 4.57, 236.49 -2.62 M254.91 13.45 C249.63 9.31, 245.56 5.13, 238.75 -1.21 M255.35 8.47 C250.13 4.55, 248.75 1.71, 244.86 -0.18 M255.56 8.11 C251.9 5.23, 247.64 3, 243.88 -0.07 M254.93 2.56 C253.29 2.51, 253.12 1.04, 251.22 -0.02 M254.46 3.04 C253.02 1.57, 251.81 0.36, 250.85 -0.52" stroke="#fab005" stroke-width="0.5" fill="none"></path><path d="M-0.34 -1.07 C64.91 2.07, 125.94 0.98, 255.36 0.25 M-0.07 -0.22 C91.6 1.33, 183.98 1.08, 254.08 0.59 M254.69 0.93 C253.94 123.15, 253.77 248.8, 253.06 339.17 M253.74 0.14 C255.95 74.81, 256.04 151.06, 253.81 338.06 M252.63 337.89 C160.24 340.3, 67.06 340.92, 1.31 337.85 M254.3 337.81 C175.15 338.02, 98.15 337.65, 0.62 337.65 M0.17 336.99 C0.43 224.65, -1.81 113.33, -0.59 -0.92 M-0.66 338.18 C2.04 240.25, 1.34 141.6, 0.39 -0.24" stroke="#ffffff" stroke-width="1" fill="none"></path></g></svg>